<svg viewBox="0 0 32 32" fill="none" xmlns="http://www.w3.org/2000/svg">
  <defs>
    <linearGradient id="flameGrad" x1="16" y1="4" x2="16" y2="18" gradientUnits="userSpaceOnUse">
      <stop offset="0%" stop-color="#D4B84A"/>
      <stop offset="100%" stop-color="#9B6FC4"/>
    </linearGradient>
    <linearGradient id="bodyGrad" x1="16" y1="20" x2="16" y2="31" gradientUnits="userSpaceOnUse">
      <stop offset="0%" stop-color="#9B6FC4"/>
      <stop offset="100%" stop-color="#6B4A9C"/>
    </linearGradient>
  </defs>
  <path d="M16 4 C16 4 10 11 11 16 C11.5 18.5 13.5 20 16 20 C18.5 20 20.5 18.5 21 16 C22 11 16 4 16 4Z"
    fill="url(#flameGrad)" opacity="0.95"/>
  <path d="M16 10 C16 10 13.5 13 14 15.5 C14.3 17 15.1 17.8 16 17.8 C16.9 17.8 17.7 17 18 15.5 C18.5 13 16 10 16 10Z"
    fill="#F5F0FD" opacity="0.45"/>
  <line x1="16" y1="19" x2="16" y2="22" stroke="#D4B84A" stroke-width="1.2" stroke-linecap="round"/>
  <rect x="9" y="22" width="14" height="8" rx="1.5" fill="url(#bodyGrad)" opacity="0.92"/>
  <ellipse cx="16" cy="22" rx="7" ry="1.8" fill="#9B6FC4"/>
</svg>